HIERARCHY
ROOT Pelvis
{
	OFFSET 0.000000 0.941512 0.000000
	CHANNELS 6 Xposition Yposition Zposition Zrotation Yrotation Xrotation 
	JOINT Pelvis_L_Hip
	{
		OFFSET 0.000000 0.000000 0.000000
		CHANNELS 3 Zrotation Yrotation Xrotation
		JOINT L_Hip
		{
			OFFSET 0.062321 -0.080322 -0.016990
			CHANNELS 3 Zrotation Yrotation Xrotation
			JOINT L_Knee
			{
				OFFSET 0.093051 -0.381305 -0.029784
				CHANNELS 3 Zrotation Yrotation Xrotation
				JOINT L_Ankle
				{
					OFFSET -0.010371 -0.431000 -0.033614
					CHANNELS 3 Zrotation Yrotation Xrotation
					End Site #name: L_Foot
					{
						OFFSET 0.069299 -0.038670 0.119418
					}
				}
			}
		}
	}
	JOINT Pelvis_R_Hip
	{
		OFFSET 0.000000 0.000000 0.000000
		CHANNELS 3 Zrotation Yrotation Xrotation
		JOINT R_Hip
		{
			OFFSET -0.055334 -0.094904 -0.002373
			CHANNELS 3 Zrotation Yrotation Xrotation
			JOINT R_Knee
			{
				OFFSET -0.064207 -0.384370 -0.019592
				CHANNELS 3 Zrotation Yrotation Xrotation
				JOINT R_Ankle
				{
					OFFSET 0.025418 -0.419734 -0.065953
					CHANNELS 3 Zrotation Yrotation Xrotation
					End Site #name: R_Foot
					{
						OFFSET -0.057233 -0.039888 0.132134
					}
				}
			}
		}
	}
	JOINT Pelvis_Spine1
	{
		OFFSET 0.000000 0.000000 0.000000
		CHANNELS 3 Zrotation Yrotation Xrotation
		JOINT Spine1
		{
			OFFSET -0.005562 0.124093 -0.043360
			CHANNELS 3 Zrotation Yrotation Xrotation
			JOINT Spine2
			{
				OFFSET 0.012244 0.139499 0.029894
				CHANNELS 3 Zrotation Yrotation Xrotation
				JOINT Spine3
				{
					OFFSET -0.002556 0.056561 0.009225
					CHANNELS 3 Zrotation Yrotation Xrotation
					JOINT Spine3_Neck
					{
						OFFSET 0.000000 0.000000 0.000000
						CHANNELS 3 Zrotation Yrotation Xrotation
						JOINT Neck
						{
							OFFSET -0.005205 0.217920 -0.024551
							CHANNELS 3 Zrotation Yrotation Xrotation
							End Site #name: Head
							{
								OFFSET 0.002365 0.091850 0.046637
							}
						}
					}
					JOINT Spine3_L_Collar
					{
						OFFSET 0.000000 0.000000 0.000000
						CHANNELS 3 Zrotation Yrotation Xrotation
						JOINT L_Collar
						{
							OFFSET 0.072225 0.116603 -0.009480
							CHANNELS 3 Zrotation Yrotation Xrotation
							JOINT L_Shoulder
							{
								OFFSET 0.115937 -0.058643 -0.021018
								CHANNELS 3 Zrotation Yrotation Xrotation
								JOINT L_Elbow
								{
									OFFSET 0.021994 -0.254722 -0.024492
									CHANNELS 3 Zrotation Yrotation Xrotation
									End Site #name: L_Wrist
									{
										OFFSET 0.048810 -0.240214 0.103329
									}
								}
							}
						}
					}
					JOINT Spine3_R_Collar
					{
						OFFSET 0.000000 0.000000 0.000000
						CHANNELS 3 Zrotation Yrotation Xrotation
						JOINT R_Collar
						{
							OFFSET -0.073372 0.120704 -0.024611
							CHANNELS 3 Zrotation Yrotation Xrotation
							JOINT R_Shoulder
							{
								OFFSET -0.108089 -0.054969 -0.020504
								CHANNELS 3 Zrotation Yrotation Xrotation
								JOINT R_Elbow
								{
									OFFSET -0.033684 -0.260739 0.009889
									CHANNELS 3 Zrotation Yrotation Xrotation
									End Site #name: R_Wrist
									{
										OFFSET -0.067980 -0.232763 0.118463
									}
								}
							}
						}
					}
				}
			}
		}
	}
}
MOTION
Frames: 5
Frame Time: 0.041667
0.000000 0.933335 0.000000 -2.123293 -4.162436 4.433105 0.000000 0.000000 0.000000 -2.415640 -2.906148 -11.856681 -4.223712 0.452326 5.980265 -1.572609 -11.430811 -3.083355 0.000000 0.000000 0.000000 -0.480964 1.799686 -10.740440 -5.483736 3.680470 22.725256 3.386512 27.670238 -6.762640 0.000000 0.000000 0.000000 2.422626 -0.681317 1.284535 -1.674666 -0.241736 -9.243100 2.843384 3.306469 1.953812 0.000000 0.000000 0.000000 -7.879519 4.591259 8.637197 0.000000 0.000000 0.000000 21.371503 -1.225269 3.375257 -27.441741 2.986914 0.422884 -2.015853 -2.146967 -5.560326 0.000000 0.000000 0.000000 -26.418448 8.527487 -1.400545 28.417871 -2.515346 8.995284 2.337482 4.671157 -10.346108 
0.004503 0.931916 0.005972 -1.658531 -4.235246 4.211052 0.000000 0.000000 0.000000 -3.290485 -2.822121 -11.438977 -4.307995 0.469548 6.235485 -1.239630 -11.689012 -3.736672 0.000000 0.000000 0.000000 -0.114569 2.174843 -12.854345 -6.964985 5.010483 27.589851 2.616957 27.282249 -7.866165 0.000000 0.000000 0.000000 1.624479 -0.564518 2.033562 -1.707890 -0.254087 -9.536963 2.838233 3.121860 2.276124 0.000000 0.000000 0.000000 -7.423382 4.279110 7.876651 0.000000 0.000000 0.000000 21.608428 -1.485122 3.199493 -27.373902 2.882341 0.088848 -2.070977 -2.199792 -5.669464 0.000000 0.000000 0.000000 -26.110442 8.355313 -1.259466 28.291537 -2.312542 8.461934 2.143052 4.694620 -10.770153 
0.009813 0.930342 0.010690 -0.336547 -4.648016 4.030821 0.000000 0.000000 0.000000 -5.285727 -2.707484 -10.851858 -4.234121 0.460170 6.054395 -0.721430 -11.725835 -4.607927 0.000000 0.000000 0.000000 -1.140954 2.727686 -16.533484 -7.423929 6.546197 35.033979 3.378409 26.901499 -6.512180 0.000000 0.000000 0.000000 0.101840 -0.250903 2.759531 -1.962907 -0.239183 -9.688158 2.703114 2.832466 2.680955 0.000000 0.000000 0.000000 -6.697337 3.811241 6.865100 0.000000 0.000000 0.000000 21.689679 -1.632839 3.027236 -26.942581 2.703579 -0.376331 -2.299941 -2.309942 -5.652689 0.000000 0.000000 0.000000 -25.620044 8.136778 -1.049484 28.107172 -1.994961 7.625140 1.858440 4.666558 -11.227392 
0.012074 0.929926 0.016638 -0.096051 -4.907528 3.096330 0.000000 0.000000 0.000000 -5.742857 -2.227965 -9.124963 -4.466254 0.485860 5.601449 -0.352449 -12.103232 -5.378098 0.000000 0.000000 0.000000 -1.076631 3.451250 -20.731638 -6.451696 7.869867 44.770244 6.747959 25.977358 -0.784195 0.000000 0.000000 0.000000 -0.538015 -0.229757 4.643352 -2.119012 -0.234681 -9.852932 2.595145 2.510481 2.765282 0.000000 0.000000 0.000000 -5.717768 3.225424 6.425645 0.000000 0.000000 0.000000 21.689833 -1.943950 2.727358 -26.544833 2.585144 -0.627253 -2.206613 -2.196816 -5.375603 0.000000 0.000000 0.000000 -25.235436 7.891493 -0.823468 28.108615 -1.645010 6.723972 1.402281 4.504882 -11.619663 
0.012883 0.929647 0.023709 -0.249100 -5.025367 1.862334 0.000000 0.000000 0.000000 -5.617952 -1.596157 -6.901959 -4.767788 0.515117 5.045692 -0.034602 -12.680407 -6.136723 0.000000 0.000000 0.000000 -0.706271 4.353056 -25.470374 -3.985869 8.146930 54.976061 11.184167 22.549927 7.853170 0.000000 0.000000 0.000000 -0.796522 -0.335706 7.120311 -2.292241 -0.234523 -10.085251 2.454774 2.080271 2.630891 0.000000 0.000000 0.000000 -4.375407 2.444590 6.365073 0.000000 0.000000 0.000000 21.804395 -2.542601 2.228887 -26.134869 2.564274 -0.557935 -2.099531 -2.068578 -5.049283 0.000000 0.000000 0.000000 -24.906168 7.475772 -0.454428 28.314262 -1.341865 5.960529 0.751865 4.302001 -12.278192 
